<svg width="50" height="50" viewBox="0 0 50 50" fill="none" xmlns="http://www.w3.org/2000/svg">
<path fill-rule="evenodd" clip-rule="evenodd" d="M4.16663 9.16675C4.16663 6.40533 6.4052 4.16675 9.16663 4.16675H40.8333C43.5947 4.16675 45.8333 6.40532 45.8333 9.16675V40.8334C45.8333 43.5948 43.5947 45.8334 40.8333 45.8334H9.16663C6.40521 45.8334 4.16663 43.5948 4.16663 40.8334V9.16675Z" stroke="white" stroke-width="4" stroke-linecap="round" stroke-linejoin="round"/>
<path fill-rule="evenodd" clip-rule="evenodd" d="M33.3334 23.6875C33.8607 27.2437 32.048 30.7372 28.8367 32.3535C25.6255 33.9698 21.7397 33.3446 19.1976 30.8024C16.6555 28.2603 16.0302 24.3746 17.6465 21.1633C19.2628 17.9521 22.7563 16.1394 26.3125 16.6667C29.9437 17.2052 32.7949 20.0563 33.3334 23.6875Z" stroke="white" stroke-width="4" stroke-linecap="round" stroke-linejoin="round"/>
</svg>
