<svg width="50" height="50" viewBox="0 0 50 50" fill="none" xmlns="http://www.w3.org/2000/svg">
<path fill-rule="evenodd" clip-rule="evenodd" d="M4.16699 9.16675C4.16699 6.40533 6.40557 4.16675 9.16699 4.16675H40.8337C43.5951 4.16675 45.8337 6.40532 45.8337 9.16675V40.8334C45.8337 43.5948 43.5951 45.8334 40.8337 45.8334H9.167C6.40557 45.8334 4.16699 43.5948 4.16699 40.8334V9.16675Z" stroke="#0C0032" stroke-width="4" stroke-linecap="round" stroke-linejoin="round"/>
<path fill-rule="evenodd" clip-rule="evenodd" d="M33.3336 23.6875C33.8609 27.2437 32.0482 30.7372 28.837 32.3535C25.6257 33.9698 21.7399 33.3446 19.1978 30.8024C16.6557 28.2603 16.0305 24.3746 17.6468 21.1633C19.2631 17.9521 22.7566 16.1394 26.3128 16.6667C29.944 17.2052 32.7951 20.0563 33.3336 23.6875Z" stroke="#0C0032" stroke-width="4" stroke-linecap="round" stroke-linejoin="round"/>
</svg>
