<svg width="150" height="150" viewBox="0 0 150 150" fill="none" xmlns="http://www.w3.org/2000/svg">
<path d="M128.29 120.971C129.27 120.971 130.241 120.778 131.146 120.404C132.051 120.029 132.874 119.479 133.567 118.786C134.259 118.093 134.809 117.271 135.183 116.365C135.558 115.46 135.751 114.49 135.75 113.51V36.4908C135.751 35.511 135.558 34.5406 135.183 33.6352C134.809 32.7299 134.259 31.9072 133.567 31.2143C132.874 30.5214 132.051 29.9718 131.146 29.5969C130.241 29.2221 129.27 29.0294 128.29 29.0298H21.711C20.7311 29.0294 19.7607 29.2221 18.8553 29.5969C17.9499 29.9717 17.1273 30.5213 16.4344 31.2142C15.7415 31.9071 15.1919 32.7297 14.8171 33.6351C14.4423 34.5405 14.2496 35.5109 14.25 36.4908V113.51C14.2496 114.49 14.4423 115.46 14.8171 116.365C15.1919 117.271 15.7415 118.093 16.4344 118.786C17.1273 119.479 17.9499 120.029 18.8553 120.404C19.7607 120.778 20.7311 120.971 21.711 120.971H128.29ZM120.829 106.049H29.169V43.9518H120.829V106.049Z" fill="white"/>
<path d="M97.2274 75.4314L79.2574 85.8009L61.2964 96.1764V54.6924L79.2574 65.0694L97.2274 75.4314Z" fill="white"/>
</svg>
