<svg width="29" height="29" viewBox="0 0 29 29" fill="none" xmlns="http://www.w3.org/2000/svg">
<path d="M16.6073 7.2532L16.9039 5.73262C16.2352 5.60215 15.5597 5.92391 15.2396 6.52539C14.9195 7.12688 15.03 7.86689 15.5118 8.34868L16.6073 7.2532ZM21.1969 11.8428L20.1014 12.9383C20.5832 13.4201 21.3232 13.5306 21.9247 13.2105C22.5262 12.8904 22.8479 12.2149 22.7175 11.5462L21.1969 11.8428ZM16.6073 2.60547L16.7783 1.0657C16.1242 0.993034 15.4956 1.34155 15.2107 1.93481C14.9258 2.52806 15.0468 3.23657 15.5125 3.70164L16.6073 2.60547ZM25.8446 11.8312L24.7498 12.9274C25.2155 13.3924 25.9241 13.5126 26.517 13.2269C27.1099 12.9413 27.4577 12.3122 27.3842 11.6582L25.8446 11.8312ZM24.6819 24.5893L23.1326 24.5893L23.1327 24.5956L24.6819 24.5893ZM22.1489 26.9132L21.9815 28.4534C21.9908 28.4544 22.0001 28.4553 22.0094 28.4562L22.1489 26.9132ZM12.1214 23.3461L12.9643 22.0462C12.9603 22.0436 12.9563 22.041 12.9523 22.0385L12.1214 23.3461ZM5.14981 16.3745L6.45745 15.5436L6.45006 15.5322L5.14981 16.3745ZM1.58268 6.30053L0.039726 6.43996C0.0404545 6.44802 0.0412462 6.45608 0.042101 6.46413L1.58268 6.30053ZM3.89493 3.76752L3.89493 2.21827L3.89347 2.21827L3.89493 3.76752ZM7.38072 3.76752V5.31676C7.3858 5.31676 7.39089 5.31673 7.39597 5.31668L7.38072 3.76752ZM9.70459 5.76604L11.2405 5.56346C11.2399 5.55871 11.2393 5.55396 11.2386 5.54922L9.70459 5.76604ZM10.5179 9.03107L9.06645 9.57269L9.06777 9.57619L10.5179 9.03107ZM9.99507 11.4827L11.0906 12.5782L11.0967 12.5721L9.99507 11.4827ZM8.51942 12.9584L7.42394 11.8629C6.93079 12.3561 6.82794 13.1179 7.17267 13.7242L8.51942 12.9584ZM15.491 19.93L14.7252 21.2767C15.3315 21.6215 16.0933 21.5186 16.5865 21.0255L15.491 19.93ZM16.9667 18.4543L15.8773 17.3527L15.8712 17.3589L16.9667 18.4543ZM19.4183 17.9315L18.8732 19.3816L18.8767 19.3829L19.4183 17.9315ZM22.6834 18.7448L22.8998 17.2107L22.8859 17.2089L22.6834 18.7448ZM16.3106 8.77377C18.013 9.10593 19.3442 10.437 19.6763 12.1395L22.7175 11.5462C22.1437 8.60556 19.8445 6.30635 16.9039 5.73262L16.3106 8.77377ZM22.2924 10.7473L17.7027 6.15772L15.5118 8.34868L20.1014 12.9383L22.2924 10.7473ZM16.4362 4.14524C20.5731 4.60481 23.8403 7.86789 24.3051 12.0042L27.3842 11.6582C26.7577 6.08319 22.3541 1.68513 16.7783 1.0657L16.4362 4.14524ZM26.9394 10.735L17.702 1.5093L15.5125 3.70164L24.7498 12.9274L26.9394 10.735ZM23.1326 21.1035V24.5893H26.2311V21.1035H23.1326ZM23.1327 24.5956C23.1335 24.8137 23.0424 25.0221 22.8817 25.1696L24.9764 27.4528C25.78 26.7155 26.2355 25.6736 26.2311 24.5831L23.1327 24.5956ZM22.8817 25.1696C22.721 25.317 22.5055 25.3899 22.2883 25.3702L22.0094 28.4562C23.0956 28.5543 24.1728 28.19 24.9764 27.4528L22.8817 25.1696ZM22.3162 25.373C18.9817 25.0107 15.7786 23.8712 12.9643 22.0462L11.2785 24.6459C14.4993 26.7346 18.1652 28.0387 21.9815 28.4534L22.3162 25.373ZM12.9523 22.0385C10.3368 20.3765 8.11937 18.1591 6.45739 15.5436L3.84223 17.2054C5.74817 20.2048 8.29112 22.7477 11.2905 24.6537L12.9523 22.0385ZM6.45006 15.5322C4.61867 12.7051 3.47896 9.48648 3.12326 6.13693L0.042101 6.46413C0.449193 10.2976 1.75357 13.9813 3.84956 17.2168L6.45006 15.5322ZM3.12564 6.16109C3.10607 5.94454 3.17842 5.72973 3.32501 5.56914L1.0366 3.48017C0.303624 4.28313 -0.0581218 5.35718 0.039726 6.43996L3.12564 6.16109ZM3.32501 5.56914C3.47161 5.40855 3.67895 5.31696 3.89639 5.31676L3.89347 2.21827C2.80627 2.2193 1.76957 2.67722 1.0366 3.48017L3.32501 5.56914ZM3.89493 5.31676H7.38072V2.21827H3.89493V5.31676ZM7.39597 5.31668C7.78478 5.31286 8.11617 5.59786 8.17059 5.98286L11.2386 5.54922C10.9665 3.62422 9.30951 2.19921 7.36547 2.21835L7.39597 5.31668ZM8.16864 5.96861C8.33105 7.19999 8.63224 8.40903 9.06646 9.57269L11.9694 8.48944C11.6169 7.54472 11.3724 6.56316 11.2405 5.56346L8.16864 5.96861ZM9.06777 9.57619C9.17417 9.85926 9.10612 10.1784 8.89348 10.3934L11.0967 12.5721C12.1599 11.4969 12.5002 9.90133 11.9681 8.48595L9.06777 9.57619ZM8.89959 10.3873L7.42394 11.8629L9.6149 14.0539L11.0905 12.5782L8.89959 10.3873ZM7.17267 13.7242C8.96458 16.8755 11.5739 19.4848 14.7252 21.2767L16.2568 18.5832C13.5903 17.067 11.3824 14.8592 9.86616 12.1926L7.17267 13.7242ZM16.5865 21.0255L18.0621 19.5498L15.8712 17.3589L14.3955 18.8345L16.5865 21.0255ZM18.056 19.5559C18.271 19.3433 18.5901 19.2752 18.8732 19.3816L19.9635 16.4813C18.5481 15.9493 16.9525 16.2895 15.8773 17.3527L18.056 19.5559ZM18.8767 19.3829C20.0404 19.8172 21.2494 20.1184 22.4808 20.2808L22.8859 17.2089C21.8862 17.077 20.9047 16.8325 19.96 16.48L18.8767 19.3829ZM22.4669 20.2789C22.8564 20.3338 23.1429 20.6719 23.1331 21.0651L26.2307 21.142C26.2794 19.176 24.8471 17.4855 22.8998 17.2108L22.4669 20.2789Z" fill="black"/>
</svg>
